<svg xmlns="http://www.w3.org/2000/svg" width="512" height="512" viewBox="0 0 512 512">
<defs>

<clipPath id="frame"><rect x="10" y="10" width="492" height="492" rx="112" ry="112"/></clipPath>
</defs>
<g clip-path="url(#frame)">

    <rect x="0" y="0" width="512" height="512" fill="#1d2b53"/>
    <g opacity="0.28">
      <rect x="0" y="0" width="16" height="512" fill="#29adff" opacity="0.06"/><rect x="32" y="0" width="16" height="512" fill="#29adff" opacity="0.06"/><rect x="64" y="0" width="16" height="512" fill="#29adff" opacity="0.06"/><rect x="96" y="0" width="16" height="512" fill="#29adff" opacity="0.06"/><rect x="128" y="0" width="16" height="512" fill="#29adff" opacity="0.06"/><rect x="160" y="0" width="16" height="512" fill="#29adff" opacity="0.06"/><rect x="192" y="0" width="16" height="512" fill="#29adff" opacity="0.06"/><rect x="224" y="0" width="16" height="512" fill="#29adff" opacity="0.06"/><rect x="256" y="0" width="16" height="512" fill="#29adff" opacity="0.06"/><rect x="288" y="0" width="16" height="512" fill="#29adff" opacity="0.06"/><rect x="320" y="0" width="16" height="512" fill="#29adff" opacity="0.06"/><rect x="352" y="0" width="16" height="512" fill="#29adff" opacity="0.06"/><rect x="384" y="0" width="16" height="512" fill="#29adff" opacity="0.06"/><rect x="416" y="0" width="16" height="512" fill="#29adff" opacity="0.06"/><rect x="448" y="0" width="16" height="512" fill="#29adff" opacity="0.06"/><rect x="480" y="0" width="16" height="512" fill="#29adff" opacity="0.06"/>
    </g>
    <rect x="40" y="40" width="16" height="16" fill="#ff004d"/><rect x="56" y="40" width="16" height="16" fill="#ffa300"/><rect x="72" y="40" width="16" height="16" fill="#ffec27"/><rect x="40" y="56" width="16" height="16" fill="#00e436"/><rect x="56" y="56" width="16" height="16" fill="#29adff"/><rect x="72" y="56" width="16" height="16" fill="#83769c"/>
    
    <path d="M226 322 h60 l14 60 h-88 z" fill="#7e2553"/>
    <rect x="176" y="378" width="160" height="22" rx="11" fill="#7e2553"
          stroke="#ffec27" stroke-width="5"/>
    <rect x="80" y="112" width="352" height="230" rx="36" fill="#7e2553"
          stroke="#ffec27" stroke-width="10"/>
    <rect x="116" y="146" width="280" height="168" rx="20" fill="#000000"/>
    <g fill="#ffffff" opacity="0.10"><rect x="116" y="150" width="280" height="3"/><rect x="116" y="158" width="280" height="3"/><rect x="116" y="166" width="280" height="3"/><rect x="116" y="174" width="280" height="3"/><rect x="116" y="182" width="280" height="3"/><rect x="116" y="190" width="280" height="3"/><rect x="116" y="198" width="280" height="3"/><rect x="116" y="206" width="280" height="3"/><rect x="116" y="214" width="280" height="3"/><rect x="116" y="222" width="280" height="3"/><rect x="116" y="230" width="280" height="3"/><rect x="116" y="238" width="280" height="3"/><rect x="116" y="246" width="280" height="3"/><rect x="116" y="254" width="280" height="3"/><rect x="116" y="262" width="280" height="3"/><rect x="116" y="270" width="280" height="3"/><rect x="116" y="278" width="280" height="3"/><rect x="116" y="286" width="280" height="3"/><rect x="116" y="294" width="280" height="3"/><rect x="116" y="302" width="280" height="3"/><rect x="116" y="310" width="280" height="3"/></g>
    
      <g>
        <circle cx="190" cy="204" r="44" fill="#00221a"/>
        <circle cx="322" cy="204" r="44" fill="#00221a"/>
        <g fill="none" stroke="#000000" stroke-width="15">
          <circle cx="190" cy="204" r="44"/>
          <circle cx="322" cy="204" r="44"/>
          <path d="M234 200 q22 -14 44 0"/>
          <path d="M144 196 l-30 -14"/>
          <path d="M368 196 l30 -14"/>
        </g>
        <rect x="243" y="178" width="26" height="30" rx="4" fill="#fff1e8"
              opacity="0.92" transform="rotate(-12 256 193)"/>
        <g stroke="#ffffff" stroke-width="9" stroke-linecap="round" opacity="0.65">
          <line x1="170" y1="192" x2="192" y2="176"/>
          <line x1="302" y1="192" x2="324" y2="176"/>
        </g>
      </g>
    
      <g stroke="#00e436" stroke-width="15" stroke-linecap="round"
         stroke-linejoin="round" fill="none">
        <polyline points="212,258 240,278 212,298"/>
      </g>
      <rect x="258" y="288" width="46" height="12" rx="6" fill="#00e436"/>
    <circle cx="396" cy="328" r="8" fill="#ffec27"/>
</g>
</svg>
